<?xml version="1.0" standalone="no"?>
<!DOCTYPE svg PUBLIC "-//W3C//DTD SVG 20010904//EN"
 "http://www.w3.org/TR/2001/REC-SVG-20010904/DTD/svg10.dtd">
<svg version="1.0" xmlns="http://www.w3.org/2000/svg"
 width="1170.000000pt" height="1170.000000pt" viewBox="0 0 1170.000000 1170.000000"
 preserveAspectRatio="xMidYMid meet">
<metadata>
Created by potrace 1.14, written by Peter Selinger 2001-2017
</metadata>
<g transform="translate(0.000000,1170.000000) scale(0.100000,-0.100000)"
fill="#000000" stroke="none">
<path d="M7975 11689 c-5 -6 -33 -27 -62 -48 -29 -21 -49 -42 -45 -46 4 -5 2
-5 -4 -2 -13 7 -106 -57 -96 -67 4 -4 3 -7 -3 -6 -20 4 -32 0 -55 -22 -14 -13
-26 -22 -27 -21 -8 7 -73 -42 -74 -55 0 -11 -2 -12 -6 -4 -3 9 -13 6 -36 -10
-18 -12 -35 -27 -39 -33 -4 -5 -8 -6 -8 -1 0 5 -8 3 -17 -5 -10 -8 -28 -20
-40 -26 -13 -7 -33 -19 -45 -25 -13 -7 -25 -15 -28 -18 -3 -3 -25 -16 -50 -29
-25 -14 -47 -27 -50 -30 -3 -3 -27 -17 -54 -31 -82 -42 -101 -53 -104 -62 -2
-4 -10 -8 -18 -8 -8 0 -14 -5 -14 -12 0 -6 -3 -8 -7 -5 -3 4 -31 -7 -62 -25
-78 -45 -186 -102 -253 -135 -32 -15 -58 -31 -58 -35 0 -5 -7 -8 -15 -8 -21 0
-76 -35 -68 -44 4 -4 1 -5 -7 -2 -8 3 -44 -10 -80 -29 -36 -19 -77 -40 -92
-46 -16 -6 -25 -16 -21 -22 3 -6 1 -7 -5 -3 -7 4 -24 0 -39 -8 -42 -23 -439
-215 -468 -226 -14 -5 -25 -13 -25 -18 0 -5 -6 -9 -12 -9 -25 0 -137 -57 -131
-66 3 -6 1 -7 -4 -4 -13 8 -103 -30 -103 -44 0 -6 -4 -8 -9 -5 -5 3 -67 -21
-138 -55 -218 -104 -286 -135 -350 -164 -36 -16 -60 -32 -56 -38 3 -6 1 -7 -5
-3 -6 4 -32 -2 -56 -14 -25 -11 -49 -20 -53 -20 -5 0 -14 -5 -21 -12 -6 -6
-18 -13 -25 -14 -8 -1 -41 -16 -75 -32 -34 -17 -62 -29 -62 -26 0 2 -18 -7
-40 -21 -22 -14 -46 -25 -55 -25 -8 0 -15 -4 -15 -10 0 -5 -3 -9 -7 -8 -5 2
-68 -24 -140 -57 -85 -38 -133 -65 -134 -75 0 -10 -2 -11 -6 -2 -2 6 -9 12
-14 12 -6 0 -7 -5 -3 -12 4 -6 3 -8 -4 -4 -9 5 -74 -22 -247 -104 -111 -53
-214 -99 -247 -111 -21 -7 -38 -17 -38 -21 0 -4 -6 -8 -13 -8 -8 0 -42 -14
-78 -31 -56 -28 -98 -47 -202 -92 -18 -8 -25 -17 -22 -27 5 -11 3 -12 -5 -4
-9 9 -29 4 -81 -22 -38 -19 -73 -34 -79 -34 -5 0 -10 -4 -10 -10 0 -5 -6 -10
-13 -10 -18 0 -221 -100 -225 -111 -2 -5 -8 -6 -14 -3 -5 4 -23 -3 -39 -15
-15 -11 -35 -21 -43 -21 -8 0 -19 -6 -23 -12 -4 -7 -12 -13 -18 -13 -5 0 -31
-11 -57 -24 -34 -17 -45 -27 -41 -39 4 -13 3 -14 -5 -4 -8 11 -17 10 -53 -9
-44 -22 -215 -126 -234 -141 -5 -5 -29 -22 -53 -39 -23 -17 -39 -36 -35 -41 3
-7 1 -8 -5 -4 -23 14 -307 -244 -415 -378 -18 -21 -42 -48 -54 -59 -13 -11
-23 -26 -23 -33 0 -6 -7 -15 -16 -18 -10 -4 -14 -12 -10 -23 4 -10 4 -14 0
-11 -11 11 -32 -15 -159 -194 -44 -62 -115 -179 -115 -188 0 -5 -3 -10 -8 -12
-25 -11 -266 -482 -258 -504 3 -8 2 -13 -2 -10 -4 2 -15 -12 -24 -32 -44 -95
-60 -138 -62 -158 0 -12 -4 -20 -8 -18 -6 4 -21 -48 -18 -62 1 -4 -3 -10 -8
-13 -14 -9 -64 -153 -58 -168 3 -8 2 -12 -2 -9 -7 4 -42 -91 -43 -119 0 -5 -4
-14 -9 -20 -4 -5 -11 -26 -15 -45 -4 -19 -20 -82 -36 -140 -16 -58 -29 -112
-28 -120 1 -8 -3 -26 -8 -40 -6 -14 -14 -45 -19 -70 -11 -57 -12 -4574 -1
-4653 4 -32 10 -64 12 -70 3 -7 6 -23 9 -37 26 -157 155 -452 297 -678 64
-103 262 -374 313 -429 15 -15 52 -58 84 -95 58 -69 314 -325 387 -387 22 -19
51 -44 64 -55 22 -20 22 -18 -6 39 -29 57 -91 227 -99 270 -2 11 -6 31 -9 45
-32 143 -37 381 -10 480 1 3 7 32 14 65 30 138 119 345 208 482 39 60 109 159
128 179 5 7 26 31 44 55 63 79 304 313 415 401 230 184 494 353 753 482 199
99 172 88 568 236 193 72 359 135 370 140 11 5 954 358 2095 785 2444 914
2207 824 2350 893 152 72 408 223 475 279 6 5 26 20 45 33 19 14 44 32 55 41
11 9 63 52 115 95 131 108 353 332 435 438 17 21 35 44 41 50 60 63 244 341
314 476 l44 85 1 2592 c0 1727 -3 2589 -10 2585 -5 -3 -46 -31 -90 -62 -136
-95 -369 -238 -570 -350 -168 -93 -762 -389 -795 -396 -7 -1 -67 -28 -158 -70
-41 -19 -76 -34 -78 -34 -3 0 -24 -8 -47 -19 -61 -27 -197 -80 -402 -156 -99
-36 -245 -91 -324 -120 -80 -30 -147 -53 -149 -51 -2 2 -3 389 -3 860 0 471 0
856 -2 856 -1 -1 -6 -6 -12 -11z m-154 -156 c13 -16 12 -17 -3 -4 -17 13 -22
21 -14 21 2 0 10 -8 17 -17z m106 -268 c0 -8 -4 -15 -9 -15 -10 0 -11 14 -1
23 9 10 10 9 10 -8z m-587 -81 c0 -8 -19 -13 -24 -6 -3 5 1 9 9 9 8 0 15 -2
15 -3z m234 -126 c-3 -4 -9 -8 -15 -8 -5 0 -9 4 -9 8 0 5 7 9 15 9 8 0 12 -4
9 -9z m-74 -114 c0 -8 -19 -13 -24 -6 -3 5 1 9 9 9 8 0 15 -2 15 -3z m154 -2
c3 -5 -1 -9 -9 -9 -8 0 -12 4 -9 9 3 4 7 8 9 8 2 0 6 -4 9 -8z m-330 -240 c3
-5 -1 -9 -9 -9 -8 0 -12 4 -9 9 3 4 7 8 9 8 2 0 6 -4 9 -8z m-717 -77 c0 -8
-4 -12 -9 -9 -5 3 -6 10 -3 15 9 13 12 11 12 -6z m1197 -3 c3 -5 -1 -9 -9 -9
-8 0 -12 4 -9 9 3 4 7 8 9 8 2 0 6 -4 9 -8z m-1463 -55 c-10 -9 -11 -8 -5 6 3
10 9 15 12 12 3 -3 0 -11 -7 -18z m-296 -16 c3 -5 2 -12 -3 -15 -5 -3 -9 1 -9
9 0 17 3 19 12 6z m1840 -80 c3 -5 2 -12 -3 -15 -5 -3 -9 1 -9 9 0 17 3 19 12
6z m-1761 -9 c3 -5 -1 -9 -9 -9 -8 0 -12 4 -9 9 3 4 7 8 9 8 2 0 6 -4 9 -8z
m163 -7 c0 -8 -4 -12 -9 -9 -5 3 -6 10 -3 15 9 13 12 11 12 -6z m887 7 c3 -5
-1 -9 -9 -9 -8 0 -12 4 -9 9 3 4 7 8 9 8 2 0 6 -4 9 -8z m233 -77 c0 -8 -4
-12 -9 -9 -5 3 -6 10 -3 15 9 13 12 11 12 -6z m-157 -1 c0 -8 -19 -13 -24 -6
-3 5 1 9 9 9 8 0 15 -2 15 -3z m-1685 -73 c3 -5 2 -12 -3 -15 -5 -3 -9 1 -9 9
0 17 3 19 12 6z m2362 -6 c0 -8 -4 -15 -9 -15 -10 0 -11 14 -1 23 9 10 10 9
10 -8z m-1357 -5 c0 -5 -4 -10 -10 -10 -5 0 -10 5 -10 10 0 6 5 10 10 10 6 0
10 -4 10 -10z m-1120 -45 c0 -5 -5 -3 -10 5 -5 8 -10 20 -10 25 0 6 5 3 10 -5
5 -8 10 -19 10 -25z m37 -40 c0 -8 -4 -12 -9 -9 -5 3 -6 10 -3 15 9 13 12 11
12 -6z m957 7 c3 -5 -1 -9 -9 -9 -8 0 -12 4 -9 9 3 4 7 8 9 8 2 0 6 -4 9 -8z
m250 0 c3 -5 -1 -9 -9 -9 -8 0 -12 4 -9 9 3 4 7 8 9 8 2 0 6 -4 9 -8z m-759
-22 c-3 -5 -12 -10 -18 -10 -7 0 -6 4 3 10 19 12 23 12 15 0z m795 -34 c0 -2
-7 -7 -16 -10 -8 -3 -12 -2 -9 4 6 10 25 14 25 6z m-760 -22 c0 -8 -19 -13
-24 -6 -3 5 1 9 9 9 8 0 15 -2 15 -3z m36 -44 c0 -12 -4 -16 -9 -11 -5 5 -6
14 -3 20 10 15 12 14 12 -9z m1564 0 c0 -5 -4 -10 -10 -10 -5 0 -10 5 -10 10
0 6 5 10 10 10 6 0 10 -4 10 -10z m-1606 -38 c3 -5 -1 -9 -9 -9 -8 0 -12 4 -9
9 3 4 7 8 9 8 2 0 6 -4 9 -8z m-29 -62 c3 -6 -1 -7 -9 -4 -18 7 -21 14 -7 14
6 0 13 -4 16 -10z m-368 -15 c0 -8 -4 -12 -9 -9 -5 3 -6 10 -3 15 9 13 12 11
12 -6z m1054 -58 c-10 -9 -11 -8 -5 6 3 10 9 15 12 12 3 -3 0 -11 -7 -18z
m1063 -5 c3 -5 -1 -9 -9 -9 -8 0 -12 4 -9 9 3 4 7 8 9 8 2 0 6 -4 9 -8z m-999
-11 c3 -5 2 -12 -3 -15 -5 -3 -9 1 -9 9 0 17 3 19 12 6z m-1398 -16 c0 -8 -4
-12 -9 -9 -4 3 -8 9 -8 15 0 5 4 9 8 9 5 0 9 -7 9 -15z m-602 -74 c3 -5 2 -12
-3 -15 -5 -3 -9 1 -9 9 0 17 3 19 12 6z m2175 3 c0 -8 -19 -13 -24 -6 -3 5 1
9 9 9 8 0 15 -2 15 -3z m-55 -33 c3 -5 2 -12 -3 -15 -5 -3 -9 1 -9 9 0 17 3
19 12 6z m-664 -24 c-10 -9 -11 -8 -5 6 3 10 9 15 12 12 3 -3 0 -11 -7 -18z
m-574 -22 c0 -8 -4 -12 -9 -9 -5 3 -6 10 -3 15 9 13 12 11 12 -6z m638 6 c3
-5 2 -12 -3 -15 -5 -3 -9 1 -9 9 0 17 3 19 12 6z m-1761 -9 c3 -5 -1 -9 -9 -9
-8 0 -12 4 -9 9 3 4 7 8 9 8 2 0 6 -4 9 -8z m-317 -87 c0 -8 -4 -12 -9 -9 -5
3 -6 10 -3 15 9 13 12 11 12 -6z m1283 9 c0 -8 -19 -13 -24 -6 -3 5 1 9 9 9 8
0 15 -2 15 -3z m-715 -44 c3 -6 -1 -7 -9 -4 -18 7 -21 14 -7 14 6 0 13 -4 16
-10z m1595 0 c0 -5 -4 -10 -10 -10 -5 0 -10 5 -10 10 0 6 5 10 10 10 6 0 10
-4 10 -10z m-725 -29 c3 -5 2 -12 -3 -15 -5 -3 -9 1 -9 9 0 17 3 19 12 6z
m-640 -80 c3 -5 2 -12 -3 -15 -5 -3 -9 1 -9 9 0 17 3 19 12 6z m162 -6 c0 -8
-4 -12 -9 -9 -5 3 -6 10 -3 15 9 13 12 11 12 -6z m317 -3 c3 -5 -1 -9 -9 -9
-8 0 -12 4 -9 9 3 4 7 8 9 8 2 0 6 -4 9 -8z m801 -1 c3 -5 2 -12 -3 -15 -5 -3
-9 1 -9 9 0 17 3 19 12 6z m-57 -46 c-3 -3 -9 2 -12 12 -6 14 -5 15 5 6 7 -7
10 -15 7 -18z m-1893 5 c-3 -5 -12 -10 -18 -10 -7 0 -6 4 3 10 19 12 23 12 15
0z m1353 -45 c-3 -3 -9 2 -12 12 -6 14 -5 15 5 6 7 -7 10 -15 7 -18z m-1641 0
c0 -8 -4 -12 -9 -9 -5 3 -6 10 -3 15 9 13 12 11 12 -6z m1474 -48 c-10 -9 -11
-8 -5 6 3 10 9 15 12 12 3 -3 0 -11 -7 -18z m-907 -25 c3 -5 -1 -9 -9 -9 -8 0
-12 4 -9 9 3 4 7 8 9 8 2 0 6 -4 9 -8z m-1127 -77 c0 -8 -4 -12 -9 -9 -5 3 -6
10 -3 15 9 13 12 11 12 -6z m557 -3 c3 -5 -1 -9 -9 -9 -8 0 -12 4 -9 9 3 4 7
8 9 8 2 0 6 -4 9 -8z m721 -1 c3 -5 2 -12 -3 -15 -5 -3 -9 1 -9 9 0 17 3 19
12 6z m445 -35 c0 -3 -4 -8 -10 -11 -5 -3 -10 -1 -10 4 0 6 5 11 10 11 6 0 10
-2 10 -4z m-1662 -91 c-3 -3 -9 2 -12 12 -6 14 -5 15 5 6 7 -7 10 -15 7 -18z
m2022 5 c0 -5 -4 -10 -10 -10 -5 0 -10 5 -10 10 0 6 5 10 10 10 6 0 10 -4 10
-10z m-1765 -29 c3 -5 2 -12 -3 -15 -5 -3 -9 1 -9 9 0 17 3 19 12 6z m-757
-56 c-3 -3 -9 2 -12 12 -6 14 -5 15 5 6 7 -7 10 -15 7 -18z m1087 -75 c3 -6
-1 -7 -9 -4 -18 7 -21 14 -7 14 6 0 13 -4 16 -10z m-328 -35 c0 -8 -4 -12 -9
-9 -5 3 -6 10 -3 15 9 13 12 11 12 -6z m1208 -45 c-3 -5 -12 -10 -18 -10 -7 0
-6 4 3 10 19 12 23 12 15 0z m-650 -29 c3 -5 2 -12 -3 -15 -5 -3 -9 1 -9 9 0
17 3 19 12 6z m162 -6 c0 -8 -4 -12 -9 -9 -5 3 -6 10 -3 15 9 13 12 11 12 -6z
m-962 -84 c3 -5 2 -12 -3 -15 -5 -3 -9 1 -9 9 0 17 3 19 12 6z m-755 -81 c0
-5 -4 -10 -10 -10 -5 0 -10 5 -10 10 0 6 5 10 10 10 6 0 10 -4 10 -10z m1164
2 c3 -5 -1 -9 -9 -9 -8 0 -12 4 -9 9 3 4 7 8 9 8 2 0 6 -4 9 -8z m-649 -71 c3
-5 2 -12 -3 -15 -5 -3 -9 1 -9 9 0 17 3 19 12 6z m-641 -9 c3 -5 -1 -9 -9 -9
-8 0 -12 4 -9 9 3 4 7 8 9 8 2 0 6 -4 9 -8z m250 0 c3 -5 -1 -9 -9 -9 -8 0
-12 4 -9 9 3 4 7 8 9 8 2 0 6 -4 9 -8z m-684 -122 c0 -5 -2 -10 -4 -10 -3 0
-8 5 -11 10 -3 6 -1 10 4 10 6 0 11 -4 11 -10z m117 -45 c0 -8 -4 -12 -9 -9
-5 3 -6 10 -3 15 9 13 12 11 12 -6z m928 -35 c3 -6 -1 -7 -9 -4 -18 7 -21 14
-7 14 6 0 13 -4 16 -10z m-195 -36 c0 -8 -19 -13 -24 -6 -3 5 1 9 9 9 8 0 15
-2 15 -3z m-656 -162 c3 -5 -1 -9 -9 -9 -8 0 -12 4 -9 9 3 4 7 8 9 8 2 0 6 -4
9 -8z m563 -7 c0 -8 -4 -12 -9 -9 -5 3 -6 10 -3 15 9 13 12 11 12 -6z m-882
-234 c3 -5 2 -12 -3 -15 -5 -3 -9 1 -9 9 0 17 3 19 12 6z m165 3 c0 -8 -19
-13 -24 -6 -3 5 1 9 9 9 8 0 15 -2 15 -3z m-486 -82 c3 -5 -1 -9 -9 -9 -8 0
-12 4 -9 9 3 4 7 8 9 8 2 0 6 -4 9 -8z m227 -39 c13 -16 12 -17 -3 -4 -10 7
-18 15 -18 17 0 8 8 3 21 -13z m336 -38 c0 -8 -4 -12 -9 -9 -5 3 -6 10 -3 15
9 13 12 11 12 -6z m-157 -1 c0 -8 -19 -13 -24 -6 -3 5 1 9 9 9 8 0 15 -2 15
-3z m-240 -80 c0 -8 -19 -13 -24 -6 -3 5 1 9 9 9 8 0 15 -2 15 -3z m-6 -162
c3 -5 -1 -9 -9 -9 -8 0 -12 4 -9 9 3 4 7 8 9 8 2 0 6 -4 9 -8z m43 -49 c0 -9
-4 -10 -14 -2 -7 6 -13 12 -13 14 0 1 6 2 13 2 8 0 14 -6 14 -14z m-362 -182
c3 -5 2 -12 -3 -15 -5 -3 -9 1 -9 9 0 17 3 19 12 6z m205 -27 c0 -8 -19 -13
-24 -6 -3 5 1 9 9 9 8 0 15 -2 15 -3z m-350 -140 c0 -8 -19 -13 -24 -6 -3 5 1
9 9 9 8 0 15 -2 15 -3z m-90 -118 c0 -2 -7 -7 -16 -10 -8 -3 -12 -2 -9 4 6 10
25 14 25 6z m90 -122 c0 -8 -19 -13 -24 -6 -3 5 1 9 9 9 8 0 15 -2 15 -3z
m-39 -51 c13 -16 12 -17 -3 -4 -10 7 -18 15 -18 17 0 8 8 3 21 -13z m-54 -28
c0 -8 -4 -12 -9 -9 -5 3 -6 10 -3 15 9 13 12 11 12 -6z"/>
</g>
</svg>
